<svg width="208" height="52" viewBox="0 0 208 52" fill="none" xmlns="http://www.w3.org/2000/svg">
<path d="M1.19469 38.5646L1.19469 12.8549L13.9655 19.9965V31.4944L24.1822 37.2791L34.3988 31.4944V19.9965L47.1698 12.8549V38.5646L24.1822 51.4194L1.19469 38.5646Z" fill="#192657"/>
<path fill-rule="evenodd" clip-rule="evenodd" d="M7.58012 16.4257L1.19469 12.8549L24.1822 0L47.1698 12.8549L40.7843 16.4257V35.3508L24.1822 44.992L7.5801 35.3508L7.58012 16.4257ZM40.0926 16.8126L34.3988 19.9965V19.925L24.1822 14.1403L13.9655 19.925V19.9965L8.27186 16.8126V34.9554L24.1822 44.1948L40.0926 34.9554V16.8126Z" fill="url(#paint0_linear_35_1054)"/>
<path d="M59.4093 36.5327V14.9366H63.4551V32.8305H73.2632V36.5327H59.4093Z" fill="#192657"/>
<path d="M81.9981 36.9646C80.4861 36.9646 79.1273 36.6562 77.9217 36.039C76.7161 35.422 75.766 34.5273 75.0713 33.355C74.3764 32.1827 74.0291 30.7737 74.0291 29.1284V28.6346C74.0291 26.9892 74.3764 25.5803 75.0713 24.408C75.766 23.2357 76.7161 22.341 77.9217 21.724C79.1273 21.1068 80.4861 20.7984 81.9981 20.7984C83.5102 20.7984 84.869 21.1068 86.0746 21.724C87.2802 22.341 88.2303 23.2357 88.925 24.408C89.6197 25.5803 89.9672 26.9892 89.9672 28.6346V29.1284C89.9672 30.7737 89.6197 32.1827 88.925 33.355C88.2303 34.5273 87.2802 35.422 86.0746 36.039C84.869 36.6562 83.5102 36.9646 81.9981 36.9646ZM81.9981 33.5092C83.1833 33.5092 84.1641 33.1288 84.9405 32.3677C85.7171 31.5862 86.1052 30.4754 86.1052 29.0357V28.7273C86.1052 27.2876 85.7171 26.1871 84.9405 25.4261C84.1845 24.6446 83.2037 24.2538 81.9981 24.2538C80.813 24.2538 79.8322 24.6446 79.0558 25.4261C78.2792 26.1871 77.8911 27.2876 77.8911 28.7273V29.0357C77.8911 30.4754 78.2792 31.5862 79.0558 32.3677C79.8322 33.1288 80.813 33.5092 81.9981 33.5092Z" fill="#192657"/>
<path d="M91.4171 28.9432V28.4496C91.4171 26.8453 91.7337 25.4775 92.3672 24.3463C93.0006 23.1945 93.8385 22.3203 94.8805 21.724C95.9431 21.1068 97.0975 20.7984 98.3439 20.7984C99.7334 20.7984 100.786 21.0452 101.501 21.5388C102.216 22.0324 102.737 22.5467 103.064 23.0814H103.616V21.2302H107.416V39.2477C107.416 40.2966 107.11 41.1295 106.497 41.7467C105.884 42.3843 105.067 42.7031 104.045 42.7031H93.869V39.3094H102.696C103.268 39.3094 103.555 39.0008 103.555 38.3838V34.4039H103.003C102.798 34.733 102.512 35.0724 102.145 35.422C101.777 35.7511 101.286 36.0288 100.673 36.2551C100.06 36.4813 99.2838 36.5945 98.3439 36.5945C97.0975 36.5945 95.9431 36.2961 94.8805 35.6997C93.8385 35.0826 93.0006 34.2085 92.3672 33.0773C91.7337 31.9255 91.4171 30.5476 91.4171 28.9432ZM99.4474 33.2008C100.632 33.2008 101.623 32.8202 102.42 32.0592C103.217 31.2983 103.616 30.2287 103.616 28.8507V28.5421C103.616 27.1435 103.217 26.074 102.42 25.3336C101.644 24.5726 100.653 24.1921 99.4474 24.1921C98.2622 24.1921 97.2711 24.5726 96.4743 25.3336C95.6774 26.074 95.279 27.1435 95.279 28.5421V28.8507C95.279 30.2287 95.6774 31.2983 96.4743 32.0592C97.2711 32.8202 98.2622 33.2008 99.4474 33.2008Z" fill="#192657"/>
<path d="M117.552 36.9646C116.04 36.9646 114.681 36.6562 113.476 36.039C112.27 35.422 111.32 34.5273 110.625 33.355C109.931 32.1827 109.583 30.7737 109.583 29.1284V28.6346C109.583 26.9892 109.931 25.5803 110.625 24.408C111.32 23.2357 112.27 22.341 113.476 21.724C114.681 21.1068 116.04 20.7984 117.552 20.7984C119.064 20.7984 120.423 21.1068 121.629 21.724C122.834 22.341 123.784 23.2357 124.479 24.408C125.174 25.5803 125.521 26.9892 125.521 28.6346V29.1284C125.521 30.7737 125.174 32.1827 124.479 33.355C123.784 34.5273 122.834 35.422 121.629 36.039C120.423 36.6562 119.064 36.9646 117.552 36.9646ZM117.552 33.5092C118.737 33.5092 119.718 33.1288 120.495 32.3677C121.271 31.5862 121.659 30.4754 121.659 29.0357V28.7273C121.659 27.2876 121.271 26.1871 120.495 25.4261C119.739 24.6446 118.758 24.2538 117.552 24.2538C116.367 24.2538 115.386 24.6446 114.61 25.4261C113.833 26.1871 113.445 27.2876 113.445 28.7273V29.0357C113.445 30.4754 113.833 31.5862 114.61 32.3677C115.386 33.1288 116.367 33.5092 117.552 33.5092Z" fill="#192657"/>
<path d="M127.707 36.5327V21.2302H131.569V36.5327H127.707ZM129.638 19.4409C128.943 19.4409 128.35 19.2147 127.86 18.7621C127.39 18.3096 127.155 17.7131 127.155 16.9728C127.155 16.2323 127.39 15.6359 127.86 15.1833C128.35 14.7309 128.943 14.5046 129.638 14.5046C130.353 14.5046 130.945 14.7309 131.415 15.1833C131.885 15.6359 132.12 16.2323 132.12 16.9728C132.12 17.7131 131.885 18.3096 131.415 18.7621C130.945 19.2147 130.353 19.4409 129.638 19.4409Z" fill="#192657"/>
<path d="M134.469 42.7031V21.2302H138.27V23.0814H138.822C139.168 22.485 139.709 21.9604 140.446 21.5079C141.182 21.0348 142.234 20.7984 143.603 20.7984C144.829 20.7984 145.963 21.1068 147.004 21.724C148.047 22.3203 148.884 23.2047 149.518 24.3772C150.152 25.5495 150.468 26.9687 150.468 28.6346V29.1284C150.468 30.7943 150.152 32.2135 149.518 33.3858C148.884 34.5583 148.047 35.4529 147.004 36.07C145.963 36.6664 144.829 36.9646 143.603 36.9646C142.683 36.9646 141.906 36.8515 141.273 36.6253C140.66 36.4196 140.159 36.1522 139.772 35.8231C139.404 35.4735 139.107 35.1238 138.883 34.7742H138.331V42.7031H134.469ZM142.438 33.5709C143.644 33.5709 144.635 33.1904 145.411 32.4294C146.208 31.6479 146.606 30.5166 146.606 29.0357V28.7273C146.606 27.2464 146.208 26.1254 145.411 25.3644C144.614 24.5829 143.623 24.1921 142.438 24.1921C141.252 24.1921 140.261 24.5829 139.465 25.3644C138.668 26.1254 138.27 27.2464 138.27 28.7273V29.0357C138.27 30.5166 138.668 31.6479 139.465 32.4294C140.261 33.1904 141.252 33.5709 142.438 33.5709Z" fill="#192657"/>
<path d="M158.949 36.9646C156.967 36.9646 155.342 36.5328 154.075 35.6689C152.809 34.805 152.043 33.5709 151.776 31.9666L155.333 31.0411C155.475 31.7609 155.71 32.3266 156.037 32.738C156.385 33.1493 156.803 33.4475 157.294 33.6327C157.804 33.7971 158.356 33.8795 158.949 33.8795C159.847 33.8795 160.512 33.7252 160.942 33.4167C161.37 33.0876 161.585 32.6865 161.585 32.2135C161.585 31.7404 161.381 31.3805 160.972 31.1336C160.564 30.8663 159.91 30.6503 159.01 30.4858L158.152 30.3315C157.089 30.1258 156.118 29.8482 155.24 29.4985C154.362 29.1284 153.656 28.6244 153.125 27.9868C152.595 27.3491 152.328 26.5264 152.328 25.5186C152.328 23.9966 152.88 22.8346 153.984 22.0324C155.086 21.2097 156.538 20.7984 158.336 20.7984C160.032 20.7984 161.442 21.1789 162.565 21.9399C163.689 22.7009 164.425 23.6985 164.773 24.9325L161.186 26.0431C161.023 25.2616 160.686 24.7062 160.175 24.3772C159.684 24.0481 159.071 23.8835 158.336 23.8835C157.6 23.8835 157.039 24.0172 156.65 24.2846C156.262 24.5314 156.068 24.8811 156.068 25.3336C156.068 25.8272 156.272 26.1973 156.681 26.4442C157.089 26.6704 157.641 26.8453 158.336 26.9687L159.193 27.1229C160.338 27.3286 161.37 27.6063 162.29 27.9559C163.23 28.285 163.965 28.7683 164.497 29.406C165.049 30.023 165.325 30.8663 165.325 31.9358C165.325 33.5401 164.741 34.7845 163.576 35.6689C162.433 36.5328 160.89 36.9646 158.949 36.9646Z" fill="#192657"/>
<path d="M173.121 36.7795C171.937 36.7795 170.894 36.5121 169.996 35.9774C169.118 35.422 168.432 34.661 167.942 33.6944C167.452 32.7277 167.206 31.617 167.206 30.3624V21.2302H171.068V30.0538C171.068 31.2056 171.344 32.0695 171.896 32.6453C172.467 33.2213 173.275 33.5092 174.318 33.5092C175.502 33.5092 176.422 33.1184 177.076 32.3369C177.73 31.5347 178.056 30.4241 178.056 29.0049V21.2302H181.918V36.5327H178.117V34.5273H177.567C177.321 35.0416 176.861 35.5454 176.187 36.039C175.513 36.5327 174.49 36.7795 173.121 36.7795Z" fill="#192657"/>
<path d="M184.837 36.5328V21.2302H188.637V22.8963H189.189C189.454 22.382 189.894 21.9399 190.506 21.5696C191.119 21.1789 191.927 20.9835 192.929 20.9835C194.011 20.9835 194.88 21.1995 195.534 21.6313C196.188 22.0427 196.688 22.5877 197.036 23.2665H197.586C197.934 22.6084 198.425 22.0633 199.059 21.6313C199.692 21.1995 200.591 20.9835 201.756 20.9835C202.695 20.9835 203.544 21.1892 204.3 21.6005C205.076 21.9912 205.689 22.598 206.139 23.4208C206.608 24.2228 206.843 25.241 206.843 26.4751V36.5328H202.981V26.7528C202.981 25.9094 202.767 25.2821 202.338 24.8708C201.908 24.4389 201.306 24.2228 200.53 24.2228C199.651 24.2228 198.966 24.5109 198.476 25.0867C198.006 25.642 197.771 26.4442 197.771 27.4932V36.5328H193.909V26.7528C193.909 25.9094 193.694 25.2821 193.266 24.8708C192.836 24.4389 192.234 24.2228 191.457 24.2228C190.578 24.2228 189.894 24.5109 189.404 25.0867C188.933 25.642 188.698 26.4442 188.698 27.4932V36.5328H184.837Z" fill="#192657"/>
<defs>
<linearGradient id="paint0_linear_35_1054" x1="7.5801" y1="9.9982" x2="42.0614" y2="9.99822" gradientUnits="userSpaceOnUse">
<stop stop-color="#64C2DB"/>
<stop offset="0.307292" stop-color="#7476ED"/>
<stop offset="0.604167" stop-color="#C994DF"/>
<stop offset="1" stop-color="#E56F8C"/>
</linearGradient>
</defs>
</svg>
